<?xml version="1.0" encoding="iso-8859-1"?>
<!-- Uploaded to: SVG Repo, www.svgrepo.com, Generator: SVG Repo Mixer Tools -->
<svg version="1.1" id="Layer_1" xmlns="http://www.w3.org/2000/svg" xmlns:xlink="http://www.w3.org/1999/xlink" 
	 viewBox="0 0 512 512" xml:space="preserve">
<rect x="93.528" y="388.543" style="fill:#7DBB34;" width="324.944" height="102.614"/>
<rect x="93.528" y="388.543" style="fill:#60A333;" width="17.102" height="102.614"/>
<polygon style="fill:#A6DE64;" points="418.472,388.543 93.528,388.543 153.386,140.56 358.614,140.56 "/>
<polygon style="fill:#7DBB34;" points="153.386,140.56 93.528,388.543 109.562,388.543 167.91,140.56 "/>
<g>
	<rect x="191.866" y="174.765" style="fill:#B169BF;" width="25.653" height="25.653"/>
	<rect x="243.173" y="174.765" style="fill:#B169BF;" width="25.653" height="25.653"/>
	<rect x="294.48" y="174.765" style="fill:#B169BF;" width="25.653" height="25.653"/>
	<rect x="191.866" y="226.072" style="fill:#B169BF;" width="25.653" height="25.653"/>
	<rect x="243.173" y="226.072" style="fill:#B169BF;" width="25.653" height="25.653"/>
	<rect x="294.48" y="226.072" style="fill:#B169BF;" width="25.653" height="25.653"/>
	<rect x="191.866" y="277.378" style="fill:#B169BF;" width="25.653" height="25.653"/>
	<rect x="243.173" y="277.378" style="fill:#B169BF;" width="25.653" height="25.653"/>
	<rect x="294.48" y="277.378" style="fill:#B169BF;" width="25.653" height="25.653"/>
	<rect x="191.866" y="328.685" style="fill:#B169BF;" width="25.653" height="25.653"/>
	<rect x="243.173" y="328.685" style="fill:#B169BF;" width="25.653" height="25.653"/>
	<rect x="294.48" y="328.685" style="fill:#B169BF;" width="25.653" height="25.653"/>
</g>
<path style="fill:#A6DE64;" d="M435.574,20.844H76.426c-37.781,0-68.409,30.628-68.409,68.409v17.102l8.551,34.205h102.614
	l8.551-34.205h256.534l8.551,34.205h102.614l8.551-34.205V89.253C503.983,51.472,473.355,20.844,435.574,20.844z"/>
<path style="fill:#7DBB34;" d="M384.267,89.253c0-34.883,26.115-63.647,59.858-67.858c-2.804-0.35-5.653-0.552-8.551-0.552H76.426
	c-2.898,0-5.747,0.201-8.551,0.552c33.743,4.21,59.858,32.975,59.858,67.858v17.102h256.534l8.551,34.205l-8.551-34.205V89.253z"/>
<g>
	<polygon style="fill:#60A333;" points="16.568,140.56 119.182,140.56 127.733,106.355 8.017,106.355 	"/>
	<polygon style="fill:#60A333;" points="503.983,106.355 384.267,106.355 392.818,140.56 495.432,140.56 	"/>
</g>
<polygon style="fill:#A6DE64;" points="290.205,80.702 324.409,80.702 332.96,140.56 281.653,140.56 "/>
<polygon style="fill:#7DBB34;" points="290.205,80.702 281.653,140.56 298.756,140.56 307.307,80.702 "/>
<polygon style="fill:#A6DE64;" points="187.591,80.702 221.795,80.702 230.347,140.56 179.04,140.56 "/>
<polygon style="fill:#7DBB34;" points="187.591,80.702 179.04,140.56 196.142,140.56 204.693,80.702 "/>
<rect x="153.386" y="414.197" style="fill:#D3D3D5;" width="205.228" height="51.307"/>
<path d="M217.52,166.748h-25.653c-4.428,0-8.017,3.588-8.017,8.017v25.653c0,4.428,3.588,8.017,8.017,8.017h25.653
	c4.428,0,8.017-3.588,8.017-8.017v-25.653C225.537,170.336,221.948,166.748,217.52,166.748z M209.503,192.401h-9.62v-9.62h9.62
	V192.401z"/>
<path d="M268.827,166.748h-25.653c-4.428,0-8.017,3.588-8.017,8.017v25.653c0,4.428,3.588,8.017,8.017,8.017h25.653
	c4.428,0,8.017-3.588,8.017-8.017v-25.653C276.843,170.336,273.255,166.748,268.827,166.748z M260.81,192.401h-9.62v-9.62h9.62
	V192.401z"/>
<path d="M320.134,166.748H294.48c-4.428,0-8.017,3.588-8.017,8.017v25.653c0,4.428,3.588,8.017,8.017,8.017h25.653
	c4.428,0,8.017-3.588,8.017-8.017v-25.653C328.15,170.336,324.562,166.748,320.134,166.748z M312.117,192.401h-9.62v-9.62h9.62
	V192.401z"/>
<path d="M217.52,218.055h-25.653c-4.428,0-8.017,3.588-8.017,8.017v25.653c0,4.428,3.588,8.017,8.017,8.017h25.653
	c4.428,0,8.017-3.588,8.017-8.017v-25.653C225.537,221.643,221.948,218.055,217.52,218.055z M209.503,243.708h-9.62v-9.62h9.62
	V243.708z"/>
<path d="M268.827,218.055h-25.653c-4.428,0-8.017,3.588-8.017,8.017v25.653c0,4.428,3.588,8.017,8.017,8.017h25.653
	c4.428,0,8.017-3.588,8.017-8.017v-25.653C276.843,221.643,273.255,218.055,268.827,218.055z M260.81,243.708h-9.62v-9.62h9.62
	V243.708z"/>
<path d="M320.134,218.055H294.48c-4.428,0-8.017,3.588-8.017,8.017v25.653c0,4.428,3.588,8.017,8.017,8.017h25.653
	c4.428,0,8.017-3.588,8.017-8.017v-25.653C328.15,221.643,324.562,218.055,320.134,218.055z M312.117,243.708h-9.62v-9.62h9.62
	V243.708z"/>
<path d="M217.52,269.362h-25.653c-4.428,0-8.017,3.588-8.017,8.017v25.653c0,4.428,3.588,8.017,8.017,8.017h25.653
	c4.428,0,8.017-3.588,8.017-8.017v-25.653C225.537,272.95,221.948,269.362,217.52,269.362z M209.503,295.015h-9.62v-9.62h9.62
	V295.015z"/>
<path d="M268.827,269.362h-25.653c-4.428,0-8.017,3.588-8.017,8.017v25.653c0,4.428,3.588,8.017,8.017,8.017h25.653
	c4.428,0,8.017-3.588,8.017-8.017v-25.653C276.843,272.95,273.255,269.362,268.827,269.362z M260.81,295.015h-9.62v-9.62h9.62
	V295.015z"/>
<path d="M320.134,269.362H294.48c-4.428,0-8.017,3.588-8.017,8.017v25.653c0,4.428,3.588,8.017,8.017,8.017h25.653
	c4.428,0,8.017-3.588,8.017-8.017v-25.653C328.15,272.95,324.562,269.362,320.134,269.362z M312.117,295.015h-9.62v-9.62h9.62
	V295.015z"/>
<path d="M217.52,320.669h-25.653c-4.428,0-8.017,3.588-8.017,8.017v25.653c0,4.428,3.588,8.017,8.017,8.017h25.653
	c4.428,0,8.017-3.588,8.017-8.017v-25.653C225.537,324.257,221.948,320.669,217.52,320.669z M209.503,346.322h-9.62v-9.62h9.62
	V346.322z"/>
<path d="M268.827,320.669h-25.653c-4.428,0-8.017,3.588-8.017,8.017v25.653c0,4.428,3.588,8.017,8.017,8.017h25.653
	c4.428,0,8.017-3.588,8.017-8.017v-25.653C276.843,324.257,273.255,320.669,268.827,320.669z M260.81,346.322h-9.62v-9.62h9.62
	V346.322z"/>
<path d="M320.134,320.669H294.48c-4.428,0-8.017,3.588-8.017,8.017v25.653c0,4.428,3.588,8.017,8.017,8.017h25.653
	c4.428,0,8.017-3.588,8.017-8.017v-25.653C328.15,324.257,324.562,320.669,320.134,320.669z M312.117,346.322h-9.62v-9.62h9.62
	V346.322z"/>
<path d="M511.944,107.273c0.034-0.301,0.056-0.606,0.056-0.917V89.253c0-42.141-34.285-76.426-76.426-76.426h-76.96
	c-4.428,0-8.017,3.588-8.017,8.017s3.588,8.017,8.017,8.017h76.96c33.3,0,60.392,27.092,60.392,60.392v9.086h-160.94l-2.682-18.771
	c-0.564-3.95-3.946-6.883-7.935-6.883h-34.205c-3.989,0-7.371,2.933-7.937,6.883l-2.681,18.771h-47.173l-2.682-18.771
	c-0.565-3.95-3.947-6.883-7.937-6.883h-34.205c-3.989,0-7.371,2.933-7.937,6.883l-2.681,18.771H16.033v-9.086
	c0-33.3,27.092-60.392,60.392-60.392h247.983c4.428,0,8.017-3.588,8.017-8.017s-3.588-8.017-8.017-8.017H76.426
	C34.285,12.827,0,47.112,0,89.253v17.102c0,0.311,0.021,0.616,0.056,0.917c0.01,0.079,0.025,0.157,0.036,0.236
	c0.033,0.228,0.074,0.453,0.125,0.676c0.009,0.038,0.012,0.078,0.021,0.117l8.551,34.205c0.894,3.568,4.1,6.071,7.778,6.071h9.086
	V285.93c0,15.804,10.947,29.091,25.653,32.699v10.057c0,21.951,16.839,40.034,38.277,42.031l-3.849,15.946
	c-0.009,0.037-0.013,0.074-0.021,0.111c-0.033,0.148-0.059,0.296-0.084,0.446c-0.021,0.127-0.043,0.254-0.058,0.382
	c-0.014,0.118-0.021,0.236-0.03,0.355c-0.012,0.161-0.022,0.323-0.025,0.483c0,0.035-0.005,0.068-0.005,0.104v102.614
	c0,4.428,3.588,8.017,8.017,8.017h324.944c4.428,0,8.017-3.588,8.017-8.017V388.542c0-0.035-0.004-0.068-0.005-0.104
	c-0.002-0.16-0.012-0.322-0.025-0.484c-0.009-0.119-0.017-0.236-0.03-0.354c-0.015-0.127-0.037-0.254-0.059-0.382
	c-0.025-0.15-0.051-0.299-0.084-0.446c-0.009-0.037-0.012-0.075-0.021-0.111l-59.858-247.983c-0.869-3.599-4.091-6.135-7.793-6.135
	h-18.7l-2.596-18.171h40.691l7.032,28.132c0.893,3.569,4.099,6.072,7.777,6.072H495.43c3.678,0,6.885-2.503,7.777-6.072
	l8.551-34.205c0.01-0.038,0.013-0.078,0.021-0.117c0.051-0.221,0.092-0.447,0.125-0.676
	C511.92,107.43,511.935,107.352,511.944,107.273z M277.297,114.372l-2.596,18.171H237.3l-2.596-18.171H277.297z M214.842,88.719
	l6.26,43.825h-32.82l6.26-43.825H214.842z M18.284,114.372h99.181l-4.543,18.171H22.826L18.284,114.372z M41.687,285.93
	c0-9.725,7.912-17.637,17.637-17.637s17.637,7.912,17.637,17.637c0,9.725-7.912,17.637-17.637,17.637S41.687,295.654,41.687,285.93z
	 M67.34,328.685v-10.057c14.707-3.608,25.653-16.895,25.653-32.699c0-18.566-15.105-33.67-33.67-33.67
	c-6.463,0-12.504,1.834-17.637,5.003v-19.628c5.133,3.17,11.174,5.005,17.637,5.005c18.566,0,33.67-15.105,33.67-33.67
	s-15.105-33.67-33.67-33.67c-6.463,0-12.504,1.834-17.637,5.003v-31.726h77.495c3.678,0,6.885-2.503,7.777-6.072l7.032-28.132
	h40.691l-2.596,18.171h-18.699c-3.703,0-6.924,2.536-7.793,6.135L93.408,354.87C79.023,354.806,67.34,343.085,67.34,328.685z
	 M41.687,208.969c0-9.725,7.912-17.637,17.637-17.637s17.637,7.912,17.637,17.637c0,9.725-7.912,17.637-17.637,17.637
	S41.687,218.694,41.687,208.969z M408.29,380.527H170.133c-4.428,0-8.017,3.588-8.017,8.017s3.588,8.017,8.017,8.017h240.323v86.58
	h-308.91v-86.58h34.383c4.428,0,8.017-3.588,8.017-8.017s-3.588-8.017-8.017-8.017H103.71l55.988-231.95h192.603L408.29,380.527z
	 M290.896,132.543l6.26-43.825h20.298l6.26,43.825H290.896z M399.077,132.543l-4.543-18.171h99.18l-4.543,18.171H399.077z"/>
<path d="M145.37,414.197v51.307c0,4.428,3.588,8.017,8.017,8.017h205.228c4.428,0,8.017-3.588,8.017-8.017v-51.307
	c0-4.428-3.588-8.017-8.017-8.017H153.386C148.958,406.18,145.37,409.768,145.37,414.197z M161.403,422.214h189.194v35.273H161.403
	V422.214z"/>
<path d="M187.591,431.834h-8.551c-4.428,0-8.017,3.588-8.017,8.017s3.588,8.017,8.017,8.017h8.551c4.428,0,8.017-3.588,8.017-8.017
	S192.019,431.834,187.591,431.834z"/>
<path d="M221.795,431.834h-8.551c-4.428,0-8.017,3.588-8.017,8.017s3.588,8.017,8.017,8.017h8.551c4.428,0,8.017-3.588,8.017-8.017
	S226.224,431.834,221.795,431.834z"/>
<path d="M260.276,431.834h-8.551c-4.428,0-8.017,3.588-8.017,8.017s3.588,8.017,8.017,8.017h8.551c4.428,0,8.017-3.588,8.017-8.017
	S264.704,431.834,260.276,431.834z"/>
<path d="M298.756,431.834h-8.551c-4.428,0-8.017,3.588-8.017,8.017s3.588,8.017,8.017,8.017h8.551c4.428,0,8.017-3.588,8.017-8.017
	S303.184,431.834,298.756,431.834z"/>
<path d="M332.96,431.834h-8.551c-4.428,0-8.017,3.588-8.017,8.017s3.588,8.017,8.017,8.017h8.551c4.428,0,8.017-3.588,8.017-8.017
	S337.389,431.834,332.96,431.834z"/>
</svg>